<?xml version="1.0" encoding="UTF-8" standalone="no"?><!DOCTYPE svg PUBLIC "-//W3C//DTD SVG 1.1//EN" "http://www.w3.org/Graphics/SVG/1.1/DTD/svg11.dtd"><svg width="100%" height="100%" viewBox="0 0 750 534" version="1.1" xmlns="http://www.w3.org/2000/svg" xmlns:xlink="http://www.w3.org/1999/xlink" xml:space="preserve" xmlns:serif="http://www.serif.com/" style="fill-rule:evenodd;clip-rule:evenodd;stroke-linecap:round;stroke-linejoin:round;stroke-miterlimit:1.5;"><g id="SVG"><rect id="ArtBoard7" x="0" y="0" width="750" height="533.333" style="fill:none;"/><clipPath id="_clip1"><rect id="ArtBoard71" serif:id="ArtBoard7" x="0" y="0" width="750" height="533.333"/></clipPath><g clip-path="url(#_clip1)"><rect id="ArtBoard9" x="-297.593" y="-356.296" width="1828.09" height="1239.81" style="fill:none;"/><g><g transform="matrix(0.991405,0,0,1,0.50961,0)"><text x="59.291px" y="267.69px" style="font-family:'KozGoPr6N-Light', 'Kozuka Gothic Pr6N', sans-serif;font-weight:300;font-size:173.66px;fill:#81875c;">TULSI</text></g><path d="M502.877,282.91c3.707,-1.501 6.838,-2.664 11.813,-4.507c1.641,-0.607 4.615,-2.131 6.324,-3.016c5.545,-2.826 6.964,-3.201 10.894,-4.947c5.418,-2.405 10.677,-5.268 16.789,-5.931c0.003,0 0.006,0 0.009,-0.001c7.42,-1.049 13.941,0.396 20.321,2.368c3.271,1.01 5.867,1.951 8.388,2.712c2.367,0.714 5.448,2.252 8.179,3.537c2.944,1.385 6.73,3.336 9.555,4.95c5.245,2.997 7.442,3.526 12.727,5.515c-5.527,1.609 -11.308,3.827 -17.515,6.58c-0.012,0.005 -0.022,0.01 -0.032,0.016c-6.983,4.111 -18.302,7.489 -25.117,9.309c-0.355,0.054 -6.458,0.979 -10.944,1.37c-1.943,0.169 -1.829,0.103 -4.28,0.089c-1.341,-0.008 -3.503,-0.156 -3.766,-0.187c-0.846,-0.098 -0.69,-0.1 -4.178,-0.698c-0.266,-0.046 -0.427,-0.071 -0.427,-0.071c-8.137,-2.486 -14.061,-5.34 -21.918,-8.612c-6.521,-2.715 -10.63,-5.148 -15.292,-7.065l-1.53,-1.411Z" style="fill:#81875c;"/><path d="M19.136,283.178l723.053,0" style="fill:none;stroke:#81875c;stroke-width:3.01px;"/><g><path d="M619.378,391.886c-1.816,-5.047 -2.705,-11.028 -5.644,-15.313c-4.579,-7.536 -6.914,-16.21 -9.298,-25.024l-0.749,-4.978c0.001,-0.297 0.001,-3.051 -0.194,-4.042c-0.492,-2.514 1.228,-15.78 1.299,-16.334c1.682,-7.283 4.81,-19.364 8.651,-26.767c0.006,-0.01 0.011,-0.021 0.015,-0.032c2.552,-6.571 4.607,-12.703 6.094,-18.576c1.891,5.732 3.355,15.17 6.508,20.141c0,0.001 0.002,0.003 0.002,0.004c4.577,7.025 6.835,14.756 9.415,21.958c1.891,6.912 3.286,13.962 2.333,21.915c-0.001,0.004 -0.001,0.006 -0.001,0.01c-0.595,6.553 -3.266,12.136 -5.509,17.9c-1.624,4.179 -3.037,5.492 -5.673,11.381c-3.316,7.284 -5.398,12.531 -7.249,17.757Z" style="fill:#81875c;"/></g><g><path d="M735.569,283.385c-4.868,1.746 -10.623,2.653 -14.75,5.444c-7.289,4.376 -15.677,6.665 -24.199,9.001l-4.816,0.761c-0.287,0.003 -2.95,0.035 -3.908,0.229c-2.43,0.491 -15.259,-0.961 -15.796,-1.022c-7.042,-1.488 -18.725,-4.274 -25.883,-7.782c-0.011,-0.005 -0.021,-0.01 -0.033,-0.014c-6.326,-2.301 -12.869,-6.15 -18.525,-7.473c5.549,-1.826 10.496,-3.091 12.222,-3.562c2.006,-0.547 8.742,-3.333 9.511,-3.589c7.972,-2.651 12.586,-3.727 19.549,-6.227c6.685,-1.852 13.503,-3.243 21.194,-2.445c0.003,0 0.006,0 0.009,0.002c6.337,0.477 11.735,2.913 17.31,4.944c4.041,1.473 5.311,2.779 11.006,5.176c7.015,3.007 12.077,4.89 17.109,6.557Z" style="fill:#81875c;"/></g><path d="M619.004,281.941c4.192,-20.694 7.041,-36.192 4.815,-54.854c-1.699,-14.246 -1.831,-18.505 -2.234,-27.303c-0.214,-4.671 -0.788,-13.976 -0.794,-16.416c-0.003,-1.611 -0.041,-11.839 0.017,-14.255c0.144,-5.975 0.906,-33.161 0.319,-38.932" style="fill:none;stroke:#81875c;stroke-width:3.01px;"/><g><g><path d="M624.252,137.178c1.108,-0.68 2.138,-1.261 3.707,-2.524c1.413,-1.119 1.676,-1.641 2.695,-2.355c1.39,-0.974 2.698,-2.085 4.4,-2.558c0.003,-0 0.008,-0.001 0.012,-0.003c2.038,-0.645 3.984,-0.492 5.926,-0.176c2.093,0.533 4.302,0.936 6.466,2.128c0.001,0.001 0.003,0.001 0.004,0.002c1.389,0.742 2.774,1.278 4.157,1.696c-1.018,0.565 -1.522,1.032 -2.94,2.026c-0.012,0.007 -0.023,0.017 -0.033,0.025c-1.728,1.568 -4.745,3.101 -6.586,3.965c-0.199,0.067 -1.832,0.6 -3.06,0.911c-0.518,0.13 -0.957,0.228 -1.157,0.213c-0.279,-0.021 -0.991,0.087 -1.143,0.111c0.003,-0.001 -1.347,-0.031 -1.347,-0.031c-2.497,-0.398 -4.954,-0.784 -7.251,-1.95c-1.219,-0.709 -2.532,-1.102 -3.849,-1.48l-0.001,0Z" style="fill:#d24b70;"/></g><g><path d="M619.311,126.276c-1.21,-0.645 -2.428,-1.273 -3.782,-1.606c-2.447,-0.755 -4.504,-2.195 -6.596,-3.654l-1.009,-0.928c-0.098,-0.126 -0.544,-0.699 -0.76,-0.878c-0.157,-0.13 -0.415,-0.51 -0.708,-0.971c-0.691,-1.084 -1.528,-2.61 -1.633,-2.802c-0.776,-1.927 -1.972,-5.171 -2.198,-7.534c-0.002,-0.013 -0.004,-0.026 -0.006,-0.04c-0.379,-1.715 -0.439,-2.412 -0.807,-3.532c1.284,0.66 2.647,1.234 4.146,1.662c0.001,0.001 0.004,0.001 0.005,0.001c2.377,0.646 4.262,1.902 6.143,2.976c1.627,1.128 3.157,2.383 4.223,4.289c0.003,0.003 0.005,0.006 0.006,0.009c0.934,1.54 1.157,3.273 1.528,4.962c0.273,1.237 0.12,1.803 0.412,3.614c0.311,2.016 0.677,3.162 1.036,4.432Z" style="fill:#d24b70;"/></g><g><path d="M623.537,111.414c-0.779,-1.134 -1.57,-2.257 -2.629,-3.188c-1.831,-1.806 -2.984,-4.022 -4.161,-6.271l-0.462,-1.276c-0.028,-0.159 -0.153,-0.863 -0.262,-1.119c-0.078,-0.187 -0.127,-0.635 -0.17,-1.171c-0.1,-1.261 -0.121,-2.974 -0.123,-3.193c0.224,-2.032 0.702,-5.399 1.627,-7.55c0.005,-0.012 0.009,-0.025 0.013,-0.038c0.481,-1.667 0.761,-2.296 0.966,-3.443c0.838,1.18 1.787,2.325 2.931,3.407c0.001,0.001 0.001,0.001 0.002,0.002c1.821,1.68 2.91,3.655 4.082,5.471c0.917,1.742 1.689,3.548 1.734,5.697l0,0.013c0.101,1.77 -0.528,3.373 -0.999,5.007c-0.348,1.198 -0.755,1.616 -1.358,3.321c-0.685,1.895 -0.905,3.061 -1.191,4.331Z" style="fill:#d24b70;"/></g><g><path d="M622.773,122.462c0.833,-0.998 1.623,-1.873 2.712,-3.573c0.983,-1.509 1.067,-2.091 1.805,-3.09c1.005,-1.362 1.891,-2.831 3.346,-3.806c0.003,-0.003 0.007,-0.005 0.009,-0.008c1.718,-1.243 3.597,-1.693 5.52,-1.985c2.136,-0.129 4.339,-0.419 6.746,0.062c0.002,-0 0.003,-0 0.004,0.001c1.541,0.287 3.015,0.377 4.45,0.355c-0.789,0.859 -1.117,1.464 -2.148,2.858c-0.007,0.011 -0.015,0.023 -0.021,0.035c-1.141,2.035 -3.504,4.434 -4.968,5.829c-0.169,0.126 -1.539,1.138 -2.598,1.813c-0.445,0.284 -0.826,0.511 -1.019,0.558c-0.269,0.067 -0.905,0.389 -1.043,0.459c0.004,-0.003 -1.277,0.383 -1.277,0.383c-2.472,0.382 -4.903,0.765 -7.426,0.349c-1.371,-0.308 -2.732,-0.281 -4.092,-0.24Z" style="fill:#d24b70;"/></g><g><path d="M614.704,143.095c-1.081,-0.45 -2.169,-0.881 -3.346,-1.053c-2.189,-0.454 -4.095,-1.539 -6.036,-2.638l-0.952,-0.722c-0.102,-0.11 -0.537,-0.571 -0.741,-0.708c-0.146,-0.1 -0.398,-0.408 -0.69,-0.783c-0.685,-0.88 -1.532,-2.128 -1.654,-2.308c-0.842,-1.623 -2.155,-4.356 -2.553,-6.402c-0.004,-0.014 -0.006,-0.027 -0.011,-0.039c-0.461,-1.424 -0.58,-2.037 -0.965,-2.938c1.147,0.454 2.355,0.829 3.664,1.071l0.004,0c2.12,0.366 3.862,1.304 5.587,2.084c1.506,0.848 2.94,1.814 4.027,3.386c0.002,0.003 0.004,0.006 0.007,0.009c0.94,1.266 1.279,2.762 1.746,4.204c0.343,1.06 0.257,1.568 0.666,3.128c0.431,1.693 0.837,2.661 1.247,3.709Z" style="fill:#d24b70;"/></g></g><g><g><path d="M711.68,352.827l-14.477,-5.142c-0.063,-0.022 -0.127,-0.04 -0.193,-0.054c-4.217,-0.886 -8.779,-2.113 -13.463,-3.899c-0.052,-0.021 -0.105,-0.038 -0.158,-0.051c-6.678,-1.73 -13.249,-3.584 -19.675,-7.653c-0.009,-0.007 -0.019,-0.013 -0.03,-0.019c-7.937,-4.771 -13.944,-10.814 -19.6,-17.155c-5.649,-7.143 -11.947,-14.386 -16.505,-23.021c-0.003,-0.004 -0.005,-0.009 -0.008,-0.012c-2.596,-4.807 -5.507,-9.302 -8.614,-13.602c3.313,1.289 6.001,1.998 11.486,3.874c0.046,0.016 0.093,0.029 0.141,0.04c8.77,2.065 21.63,7.981 29.31,11.716c0.93,0.547 13.861,8.176 15.972,10.29c0.85,0.851 3.389,2.741 3.841,3.076c-0.005,-0.005 4.332,4.053 4.332,4.053c7.248,8.092 14.391,16.046 19.43,25.027c2.201,4.364 5.149,8.467 8.209,12.531l0.002,0.001Z" style="fill:#a8c49d;"/></g><g><path d="M527.055,352.938c3.063,-4.068 6.014,-8.176 8.21,-12.536c5.032,-8.97 12.178,-16.926 19.429,-25.021l4.336,-4.058c0.465,-0.344 2.989,-2.224 3.836,-3.071c2.108,-2.111 15.002,-9.719 15.967,-10.287c7.685,-3.739 20.546,-9.655 29.315,-11.719c0.048,-0.011 0.095,-0.024 0.141,-0.041c5.485,-1.875 8.173,-2.584 11.486,-3.875c-3.107,4.301 -6.017,8.797 -8.615,13.603c-0.002,0.004 -0.004,0.008 -0.007,0.013c-4.557,8.635 -10.855,15.878 -16.499,23.015c-5.657,6.343 -11.666,12.387 -19.606,17.161c-0.01,0.006 -0.02,0.012 -0.029,0.018c-6.427,4.07 -12.997,5.923 -19.676,7.654c-0.053,0.013 -0.106,0.03 -0.157,0.049c-4.685,1.788 -9.247,3.014 -13.464,3.901c-0.065,0.013 -0.131,0.031 -0.193,0.054l-14.476,5.141l0.002,-0.001Z" style="fill:#a8c49d;"/></g><g><path d="M696.719,196.029c-2.226,4.581 -4.336,9.178 -5.655,13.878c-3.221,9.768 -8.709,18.945 -14.274,28.28l-3.479,4.814c-0.389,0.426 -2.507,2.755 -3.176,3.749c-1.663,2.476 -12.861,12.415 -13.7,13.157c-6.825,5.141 -18.314,13.412 -26.526,17.118c-0.044,0.021 -0.088,0.043 -0.13,0.067c-5.024,2.892 -7.525,4.103 -10.53,6.004c2.225,-4.815 4.22,-9.786 5.848,-15c0.001,-0.005 0.002,-0.01 0.004,-0.015c2.82,-9.348 7.612,-17.663 11.783,-25.75c4.338,-7.31 9.077,-14.394 15.955,-20.6c0.008,-0.007 0.017,-0.015 0.025,-0.023c5.528,-5.225 11.621,-8.304 17.843,-11.283c0.05,-0.023 0.098,-0.049 0.146,-0.078c4.255,-2.652 8.497,-4.732 12.467,-6.409c0.061,-0.026 0.121,-0.056 0.178,-0.09l13.223,-7.82l-0.002,0.001Z" style="fill:#a8c49d;"/></g><g><path d="M539.381,198.682l13.463,7.4c0.059,0.031 0.119,0.06 0.182,0.084c4.02,1.551 8.326,3.495 12.662,6.011c0.049,0.028 0.097,0.053 0.148,0.075c6.313,2.781 12.501,5.665 18.19,10.714c0.009,0.007 0.017,0.015 0.027,0.023c7.071,5.986 12.031,12.917 16.595,20.086c4.425,7.951 9.478,16.111 12.591,25.365c0.001,0.005 0.002,0.01 0.005,0.015c1.79,5.16 3.942,10.065 6.318,14.809c-3.064,-1.806 -5.602,-2.937 -10.714,-5.669c-0.044,-0.023 -0.088,-0.045 -0.133,-0.063c-8.322,-3.445 -20.065,-11.347 -27.045,-16.267c-0.833,-0.692 -12.372,-10.298 -14.116,-12.724c-0.702,-0.977 -2.905,-3.25 -3.297,-3.653c0.004,0.005 -3.624,-4.696 -3.624,-4.696c-5.855,-9.152 -11.628,-18.149 -15.16,-27.822c-1.472,-4.661 -3.723,-9.185 -6.09,-13.688l-0.002,0Z" style="fill:#a8c49d;"/></g></g><g transform="matrix(0.838338,0,0,1,-31.284,0)"><text x="68.789px" y="363.444px" style="font-family:'KozGoPr6N-Light', 'Kozuka Gothic Pr6N', sans-serif;font-weight:300;font-size:86.83px;fill:#81875c;">Naturkosmetik</text></g></g></g></g><g id="png"></g></svg>