<?xml version="1.0" encoding="UTF-8" standalone="no"?><svg xmlns="http://www.w3.org/2000/svg" xmlns:xlink="http://www.w3.org/1999/xlink" viewBox="0 0 1000 517" height="100%" width="100%"><path style="fill:#918161;fill-opacity:1;fill-rule:nonzero;stroke:none" transform="translate(-188.722,-374.947)" d="m 923.258,374.947 0,142.122 20.990,0 0,-142.122 -20.990,0 z m 105.780,0.021 0,142.101 20.990,0 0,-142.101 -20.990,0 z m -840.316,7.251 0,134.849 31.486,0 c 45.221,0 72.063,-18.967 72.063,-70.245 0,-50.668 -26.446,-64.604 -70.451,-64.604 l -33.097,0 z m 248.026,0 0,134.849 21.590,0 0,-67.414 61.361,0 0,67.414 21.404,0 0,-134.849 -21.404,0 0,60.162 -61.361,0 0,-60.162 -21.590,0 z m -226.436,6.879 10.495,0 c 31.284,0 48.655,12.715 48.655,57.724 0,46.424 -17.370,63.385 -48.655,63.385 l -10.495,0 0,-121.110 z m 147.576,29.461 c -11.913,0 -18.376,9.688 -20.598,22.209 l 2.231,1.404 c 4.442,-6.267 10.088,-10.102 19.172,-10.102 2.023,0 4.850,0.422 6.053,0.619 l 0,-12.520 c -1.414,-0.806 -3.831,-1.611 -6.859,-1.611 z m 429.920,0 c -18.974,0 -31.506,12.108 -31.506,26.032 0,12.720 5.669,20.598 20.598,27.870 l 11.507,5.640 c 9.890,4.852 12.127,10.306 12.127,16.362 0,11.093 -8.505,15.743 -18.594,15.743 -11.305,0 -19.978,-6.661 -23.614,-13.325 l -4.441,3.037 c 3.636,9.692 13.734,18.759 33.118,18.759 19.582,0 33.903,-11.716 33.903,-28.469 0,-11.913 -5.440,-20.783 -21.796,-28.862 l -11.301,-5.660 c -8.277,-4.032 -10.908,-8.665 -10.908,-15.329 0,-8.475 7.267,-13.718 15.743,-13.718 9.295,0 16.758,6.041 20.804,12.706 l 4.028,-2.417 c -3.834,-9.493 -13.721,-18.367 -29.668,-18.367 z m 90.017,0 c -23.813,0 -42.580,14.317 -42.580,48.035 0,37.948 17.138,52.084 40.370,52.084 17.956,0 28.269,-11.905 30.887,-22.602 l -3.036,-1.818 c -3.027,5.857 -11.691,11.714 -21.383,11.714 -14.134,0 -25.040,-11.111 -25.040,-40.783 0,-27.648 10.087,-37.560 24.420,-37.560 9.493,0 15.762,5.062 20.205,11.528 l 3.222,-1.838 c -2.829,-10.287 -12.52,-18.759 -27.064,-18.759 z m 98.715,0 c -15.748,0 -25.218,10.093 -27.850,17.974 l 1.219,1.611 c 4.032,-3.437 9.888,-6.053 17.148,-6.053 9.493,0 14.730,6.056 14.730,18.366 l 0,66.608 21.011,0 0,-67.414 c 0,-21.394 -9.704,-31.093 -26.259,-31.093 z m -376.286,0.206 c -18.974,0 -32.094,11.093 -35.122,22.808 l 2.623,1.818 c 4.641,-5.447 13.537,-10.516 24.234,-10.516 13.526,0 19.978,7.076 19.978,24.028 l 0,10.495 -11.900,0 c -25.836,0 -37.353,10.511 -37.353,26.259 0,16.554 9.069,25.019 24.420,25.019 10.088,0 17.558,-6.451 19.978,-12.706 l -1.611,-1.838 c -2.009,2.023 -5.647,3.842 -10.288,3.842 -7.682,0 -12.705,-4.040 -12.705,-16.548 0,-12.323 5.031,-17.953 20.990,-17.953 l 8.470,0 0,43.593 20.990,0 0,-63.385 c 0,-23.007 -10.293,-34.915 -32.705,-34.915 z m 555.741,0 c -18.961,0 -32.073,11.093 -35.101,22.808 l 2.623,1.818 c 4.627,-5.447 13.53,-10.516 24.213,-10.516 13.526,0 19.999,7.076 19.999,24.028 l 0,10.495 -11.921,0 c -25.837,0 -37.333,10.511 -37.333,26.259 0,16.554 9.082,25.019 24.420,25.019 10.102,0 17.545,-6.451 19.978,-12.706 l -1.611,-1.838 c -2.009,2.023 -5.647,3.842 -10.288,3.842 -7.669,0 -12.726,-4.040 -12.726,-16.548 0,-12.323 5.044,-17.953 20.990,-17.953 l 8.491,0 0,43.593 20.990,0 0,-63.385 c 0,-23.007 -10.313,-34.915 -32.726,-34.915 z m -842.919,1.404 0,96.896 20.990,0 0,-96.896 -20.990,0 z m 344.510,0 0,66.608 c 0,22.200 7.681,31.899 26.259,31.899 14.729,0 23.817,-10.098 26.858,-17.767 l -1.425,-2.210 c -3.636,3.424 -9.104,5.846 -15.557,5.846 -10.300,0 -15.123,-4.847 -15.123,-19.379 l 0,-64.997 -21.011,0 z m 57.332,0 0,96.896 21.011,0 0,-96.896 -21.011,0 z m 381.533,0 -41.568,46.423 0,0.806 31.692,49.667 22.395,0 -36.734,-59.357 34.110,-37.539 -9.896,0 z m -721.003,71.670 c -7.060,0 -13.119,5.234 -13.119,13.511 0,8.065 6.058,13.325 13.119,13.325 7.060,0 13.119,-5.260 13.119,-13.325 0,-8.277 -6.058,-13.511 -13.119,-13.511 z m 212.780,150.221 c 2.723,16.872 2.404,26.668 -2.355,43.923 -7.179,25.982 -22.168,46.733 -22.168,82.104 0,65.213 53.177,123.961 125.015,123.961 71.838,0 124.994,-58.747 124.994,-123.961 0,-35.370 -14.981,-56.121 -22.147,-82.104 -4.760,-17.255 -5.086,-27.051 -2.376,-43.923 l -14.193,0 c -1.943,8.250 -2.975,16.434 -2.975,23.284 0,16.660 5.526,31.168 11.384,46.506 6.439,16.858 13.098,34.274 13.098,56.237 0,28.150 -11.273,54.831 -31.755,75.141 -20.521,20.336 -47.522,31.548 -76.029,31.548 -28.521,0 -55.521,-11.212 -76.029,-31.548 -20.481,-20.309 -31.754,-46.990 -31.754,-75.141 0,-21.962 6.631,-39.378 13.057,-56.237 5.857,-15.338 11.404,-29.845 11.404,-46.506 0,-6.836 -1.017,-15.033 -2.975,-23.284 l -14.193,0 z m 29.565,18.552 c 1.507,15.457 -0.980,26.717 -6.322,41.671 -7.814,21.936 -19.544,41.526 -19.544,65.803 0,52.057 45.786,96.318 96.772,96.318 50.986,0 96.814,-44.261 96.814,-96.318 0,-24.276 -11.737,-43.866 -19.565,-65.803 -5.328,-14.954 -7.816,-26.214 -6.322,-41.671 l -14.234,0 c -0.991,7.708 -0.650,20.197 0.763,28.263 1.824,10.406 5.686,19.728 9.772,29.606 6.055,14.610 12.292,29.731 12.292,49.605 0,19.767 -8.287,39.656 -22.726,54.584 -15.166,15.655 -35.334,24.275 -56.795,24.275 -21.447,0 -41.608,-8.620 -56.774,-24.275 -14.439,-14.928 -22.726,-34.816 -22.726,-54.584 0,-19.873 6.250,-34.994 12.292,-49.605 4.099,-9.877 7.968,-19.199 9.792,-29.606 1.414,-8.079 1.735,-20.554 0.742,-28.263 l -14.234,0 z m 26.238,19.069 c 0,6.069 -0.795,16.307 -4.524,27.044 -7.087,20.362 -19.193,38.975 -19.193,61.361 0,36.243 30.444,68.654 68.406,68.654 37.962,0 68.385,-32.411 68.385,-68.654 0,-22.385 -12.085,-40.998 -19.172,-61.361 -3.728,-10.736 -4.545,-20.975 -4.545,-27.044 l -13.986,0 c -0.766,9.070 0.549,19.385 4.132,32.250 1.441,5.183 3.888,10.640 6.466,16.445 5.130,11.490 10.929,24.503 10.929,39.709 0,12.958 -5.413,26.183 -14.854,36.258 -10.035,10.697 -23.298,16.569 -37.353,16.569 -14.055,0 -27.317,-5.872 -37.353,-16.569 -9.440,-10.075 -14.875,-23.300 -14.875,-36.258 0,-15.205 5.812,-28.218 10.929,-39.709 2.591,-5.804 5.046,-11.262 6.487,-16.445 3.583,-12.865 4.885,-23.179 4.131,-32.250 l -14.007,0 z m 44.688,53.324 c -20.058,0 -36.382,16.316 -36.382,36.362 0,20.058 16.323,36.382 36.382,36.382 20.045,0 36.362,-16.324 36.362,-36.382 0,-20.045 -16.316,-36.362 -36.362,-36.362 z" /></svg>