<?xml version="1.0" encoding="UTF-8" standalone="no"?><svg xmlns="http://www.w3.org/2000/svg" xmlns:xlink="http://www.w3.org/1999/xlink" viewBox="0 0 211.66 211.14" height="100%" width="100%"><style>.a{stroke-width:1.08};</style><defs><linearGradient gradientTransform="matrix(1.08,0,0,1.08,-45.60,-73.82)" y2="26.91" x2="212.32" y1="183.40" x1="212.32" gradientUnits="userSpaceOnUse" id="gradient"><stop style="stop-color:#64D840" offset="0" /><stop style="stop-color:#12A100" offset="0.50" /><stop style="stop-color:#64D840" offset="1" /></linearGradient></defs><g transform="translate(-77.01,62.28)"><path style="fill:#ffffff;" d="m 77.01,148.86 c 5.73,-18.50 12.37,-36.10 18.45,-54.27 -40.27,-70.43 9.56,-149.72 77.06,-156.30 63.73,-6.21 115.98,39.55 116.14,102.03 0.16,65.92 -63.76,121.27 -135.68,98.77 -5.42,-1.69 -12.13,-7.22 -18.45,-7.59 -8.82,-0.52 -20.39,5.81 -29.30,8.68 -9.76,3.14 -18.26,6.29 -28.22,8.68 z m 59.70,-36.90 c 58.07,35.24 127.61,-4.28 133.51,-61.87 5.33,-52.12 -36.28,-98.51 -92.26,-94.43 -63.90,4.65 -102.29,80.94 -62.95,136.76 -3.48,9.54 -6.74,19.31 -9.76,29.30 10.66,-3.08 20.49,-7.00 31.47,-9.76 z" id="c" class="a" /><path style="fill:url(#gradient);" d="m 105.23,121.72 c 3.02,-9.99 6.28,-19.76 9.76,-29.30 -39.34,-55.82 -0.95,-132.11 62.95,-136.76 55.98,-4.07 97.60,42.30 92.26,94.43 -5.89,57.58 -75.43,97.11 -133.51,61.87 -10.98,2.76 -20.81,6.68 -31.47,9.76 z m 29.30,-92.26 c 9.31,26.19 47.90,61.66 75.98,62.95 13.31,0.61 29.04,-6.29 28.22,-24.96 -8.01,-5.73 -17.25,-10.24 -27.13,-14.10 -4.72,4.67 -8.44,10.36 -14.11,14.10 -17.02,-7.57 -30.08,-19.11 -37.99,-35.81 15.55,-8.48 6.10,-27.38 0,-40.16 -24.13,-7.27 -30.49,22.45 -24.96,37.99 z" id="b" class="a" /><path style="fill:#ffffff;" d="m 159.51,-8.53 c 6.10,12.77 15.55,31.67 0,40.16 7.90,16.70 20.96,28.24 37.99,35.81 5.66,-3.74 9.38,-9.43 14.11,-14.11 9.88,3.86 19.12,8.37 27.13,14.11 C 239.57,86.12 223.84,93.02 210.52,92.41 182.45,91.12 143.85,55.65 134.54,29.45 c -5.52,-15.54 0.82,-45.26 24.96,-37.99 z" id="p" class="a" /></g></svg>